#!OML:ASF E:\motion texture\Top Level 1\Subject 1\Session 1\male.ASF
:FULLY-SPECIFIED
:DEGREES
129
root 14.7388 17.5488 5.61263 484.862 -83.7592 -479.072
lowerback -0.427611 0.715008 2.50313
upperback 0.116586 0.935224 0.309816
thorax 0.394014 0.471854 -1.07781
lowerneck -10.1343 -1.08588 -6.74253
upperneck 32.8571 -1.57974 1.07912
head 12.6507 -1.8328 1.28341
rclavicle -2.08724e-015 1.23246e-014
rhumerus -16.1688 -7.92373 -80.8664
rradius 82.0612
rwrist -17.1977
rhand -13.9169 -26.6623
rfingers 7.12502
rthumb 12.2092 -56.286
lclavicle -2.08724e-015 1.23246e-014
lhumerus -10.9146 23.5424 85.3034
lradius 68.7425
lwrist 35.7917
lhand -11.0253 26.3349
lfingers 7.12502
lthumb 14.9962 55.7719
rfemur -9.41356 -0.779094 25.968
rtibia 53.3858
rfoot 5.45173 -13.6045
rtoes -3.47755
lfemur -27.917 -2.28597 -11.0631
ltibia 23.1131
lfoot -0.302512 0.86282
ltoes -2.12175
130
root 14.5818 17.5656 5.64028 489.059 -84.0168 -483.546
lowerback -0.451364 0.702636 2.08183
upperback 0.108832 0.922644 0.145384
thorax 0.394877 0.465356 -1.0101
lowerneck -10.1191 -1.06827 -6.70562
upperneck 32.8948 -1.62416 1.24032
head 12.6645 -1.83187 1.33268
rclavicle 2.48481e-016 -3.97569e-016
rhumerus -15.7482 -7.56473 -81.3807
rradius 78.8511
rwrist -17.6632
rhand -12.8564 -27.4243
rfingers 7.12502
rthumb 13.2316 -56.9844
lclavicle 2.48481e-016 -3.97569e-016
lhumerus -10.9057 24.1227 85.401
lradius 65.2965
lwrist 36.7342
lhand -11.3409 28.2877
lfingers 7.12502
lthumb 14.6921 57.7471
rfemur -10.4766 -1.12523 25.2002
rtibia 55.4437
rfoot 7.98056 -14.3013
rtoes -0.0412054
lfemur -26.9696 -2.32015 -11.844
ltibia 23.1081
lfoot -0.649522 0.868381
ltoes -1.21997
131
root 14.4252 17.5826 5.66786 493.675 -84.2221 -488.453
lowerback -0.461786 0.689089 1.67565
upperback 0.0858942 0.908451 -0.00758123
thorax 0.372871 0.457574 -0.939352
lowerneck -10.0914 -1.03458 -6.667
upperneck 32.961 -1.64058 1.3709
head 12.6863 -1.82425 1.37357
rclavicle 3.97569e-015 8.74653e-015
rhumerus -15.3218 -7.2487 -81.854
rradius 75.6142
rwrist -18.1782
rhand -11.7524 -28.4333
rfingers 7.12502
rthumb 14.2956 -57.9212
lclavicle 3.97569e-015 8.74653e-015
lhumerus -10.9466 24.6485 85.3946
lradius 61.757
lwrist 36.9789
lhand -11.4639 30.1698
lfingers 7.12502
lthumb 14.5735 59.6378
rfemur -11.5017 -1.4285 24.472
rtibia 57.4087
rfoot 9.90941 -15.1941
rtoes 2.89884
lfemur -25.9708 -2.3886 -12.6131
ltibia 23.0447
lfoot -1.0363 0.95382
ltoes -0.463134
132
root 14.2694 17.6001 5.695 498.44 -84.3488 -493.516
lowerback -0.4664 0.668195 1.30086
upperback 0.0558841 0.883775 -0.132424
thorax 0.340299 0.44439 -0.857547
lowerneck -10.0513 -0.989449 -6.64454
upperneck 33.0438 -1.63778 1.4925
head 12.7117 -1.81269 1.41641
rclavicle 9.69075e-015 -1.59028e-015
rhumerus -14.9018 -6.96079 -82.2915
rradius 72.4312
rwrist -18.7869
rhand -10.6928 -29.7046
rfingers 7.12502
rthumb 15.3164 -59.1174
lclavicle 9.69075e-015 -1.59028e-015
lhumerus -11.0768 25.0972 85.2946
lradius 58.2515
lwrist 36.6605
lhand -11.5283 31.9938
lfingers 7.12502
lthumb 14.5115 61.4663
rfemur -12.5054 -1.70276 23.8147
rtibia 59.2852
rfoot 11.1008 -16.2023
rtoes 5.14668
lfemur -24.9278 -2.46473 -13.3362
ltibia 22.9255
lfoot -1.45833 1.0913
ltoes 0.14488
133
root 14.1143 17.6189 5.72114 502.968 -84.3962 -498.351
lowerback -0.459201 0.635619 0.967145
upperback 0.0202803 0.842846 -0.222405
thorax 0.295353 0.423051 -0.763347
lowerneck -10.0102 -0.93444 -6.64141
upperneck 33.1434 -1.61792 1.61161
head 12.7434 -1.79752 1.46397
rclavicle -9.34288e-015 -7.95139e-016
rhumerus -14.5231 -6.70137 -82.6976
rradius 69.3815
rwrist -19.5071
rhand -9.76993 -31.2167
rfingers 7.12502
rthumb 16.2052 -60.5594
lclavicle -9.34288e-015 -7.95139e-016
lhumerus -11.3549 25.4193 85.1085
lradius 54.9464
lwrist 36.0556
lhand -11.6451 33.7646
lfingers 7.12502
lthumb 14.399 63.2451
rfemur -13.4865 -1.96625 23.2479
rtibia 61.0556
rfoot 11.5652 -17.2299
rtoes 6.65498
lfemur -23.8359 -2.54024 -13.9919
ltibia 22.7395
lfoot -1.89934 1.26569
ltoes 0.565897
